<svg width="15" height="15" viewBox="0 0 15 15" fill="none" xmlns="http://www.w3.org/2000/svg">
<path d="M12.3633 0.9375H4.86332C4.55255 0.937612 4.25454 1.06111 4.0348 1.28086C3.81505 1.5006 3.69155 1.79861 3.69144 2.10938V7.50938C3.08197 7.56813 2.51624 7.85179 2.10458 8.30505C1.69291 8.7583 1.46484 9.34864 1.46484 9.96094C1.46484 10.5732 1.69291 11.1636 2.10458 11.6168C2.51624 12.0701 3.08197 12.3537 3.69144 12.4125V12.8906C3.69155 13.2014 3.81505 13.4994 4.0348 13.7191C4.25454 13.9389 4.55255 14.0624 4.86332 14.0625H10.4883C10.5506 14.0628 10.6104 14.0383 10.6547 13.9945L13.4602 11.4234C13.507 11.3777 13.5339 11.3154 13.5352 11.25V2.10938C13.5351 1.79861 13.4116 1.5006 13.1918 1.28086C12.9721 1.06111 12.6741 0.937612 12.3633 0.9375ZM3.92582 11.9531C3.5318 11.9531 3.14663 11.8363 2.81901 11.6174C2.4914 11.3985 2.23606 11.0873 2.08527 10.7233C1.93449 10.3593 1.89504 9.95873 1.97191 9.57228C2.04878 9.18583 2.23851 8.83086 2.51713 8.55225C2.79574 8.27364 3.15071 8.0839 3.53716 8.00703C3.9236 7.93016 4.32417 7.96961 4.68819 8.1204C5.05222 8.27118 5.36335 8.52652 5.58226 8.85414C5.80116 9.18175 5.918 9.56692 5.918 9.96094C5.91765 10.4892 5.70765 10.9957 5.33412 11.3692C4.96058 11.7428 4.45407 11.9528 3.92582 11.9531ZM10.7227 13.2961V11.9531C10.7231 11.8289 10.7726 11.7099 10.8604 11.6221C10.9482 11.5342 11.0672 11.4847 11.1914 11.4844H12.6985L10.7227 13.2961ZM13.0664 11.0156H11.1914C11.0683 11.0156 10.9464 11.0398 10.8326 11.0869C10.7189 11.134 10.6155 11.2031 10.5285 11.2901C10.4414 11.3772 10.3723 11.4806 10.3252 11.5943C10.2781 11.7081 10.2539 11.83 10.2539 11.9531V13.5938H4.86332C4.677 13.5932 4.49848 13.5189 4.36673 13.3872C4.23499 13.2555 4.16074 13.0769 4.16019 12.8906V12.4125C4.76966 12.3537 5.33539 12.0701 5.74705 11.6168C6.15872 11.1636 6.38679 10.5732 6.38679 9.96094C6.38679 9.34864 6.15872 8.7583 5.74705 8.30505C5.33539 7.85179 4.76966 7.56813 4.16019 7.50938V2.10938C4.16073 1.92306 4.23499 1.74453 4.36673 1.61279C4.49847 1.48105 4.677 1.40679 4.86332 1.40625H12.3633C12.5496 1.40679 12.7282 1.48105 12.8599 1.61279C12.9916 1.74453 13.0659 1.92306 13.0664 2.10938V11.0156Z" fill="#6F6B7D"/>
<path d="M11.4258 6.32825H5.80078C5.73862 6.32825 5.67901 6.35294 5.63505 6.39689C5.5911 6.44085 5.56641 6.50046 5.56641 6.56262C5.56641 6.62478 5.5911 6.6844 5.63505 6.72835C5.67901 6.7723 5.73862 6.797 5.80078 6.797H11.4258C11.4879 6.797 11.5476 6.7723 11.5915 6.72835C11.6355 6.6844 11.6602 6.62478 11.6602 6.56262C11.6602 6.50046 11.6355 6.44085 11.5915 6.39689C11.5476 6.35294 11.4879 6.32825 11.4258 6.32825Z" fill="#6F6B7D"/>
<path d="M5.80078 4.922H10.4883C10.5504 4.922 10.6101 4.8973 10.654 4.85335C10.698 4.8094 10.7227 4.74978 10.7227 4.68762C10.7227 4.62546 10.698 4.56585 10.654 4.52189C10.6101 4.47794 10.5504 4.45325 10.4883 4.45325H5.80078C5.73862 4.45325 5.67901 4.47794 5.63505 4.52189C5.5911 4.56585 5.56641 4.62546 5.56641 4.68762C5.56641 4.74978 5.5911 4.8094 5.63505 4.85335C5.67901 4.8973 5.73862 4.922 5.80078 4.922Z" fill="#6F6B7D"/>
<path d="M11.4258 2.578L5.80078 2.57812C5.73862 2.57812 5.67901 2.60281 5.63505 2.64676C5.5911 2.69072 5.56641 2.75033 5.56641 2.81249C5.56641 2.87465 5.5911 2.93427 5.63505 2.97822C5.67901 3.02217 5.73862 3.04687 5.80078 3.04687L11.4258 3.04675C11.4879 3.04675 11.5476 3.02206 11.5915 2.97811C11.6355 2.93415 11.6602 2.87454 11.6602 2.81238C11.6602 2.75022 11.6355 2.6906 11.5915 2.64665C11.5476 2.6027 11.4879 2.578 11.4258 2.578Z" fill="#6F6B7D"/>
<path d="M9.55078 10.5314H7.67578C7.61362 10.5314 7.55401 10.5561 7.51005 10.6001C7.4661 10.644 7.44141 10.7036 7.44141 10.7658C7.44141 10.828 7.4661 10.8876 7.51005 10.9315C7.55401 10.9755 7.61362 11.0002 7.67578 11.0002H9.55078C9.61294 11.0002 9.67256 10.9755 9.71651 10.9315C9.76046 10.8876 9.78516 10.828 9.78516 10.7658C9.78516 10.7036 9.76046 10.644 9.71651 10.6001C9.67256 10.5561 9.61294 10.5314 9.55078 10.5314Z" fill="#6F6B7D"/>
<path d="M11.4258 8.65643H7.67578C7.61362 8.65643 7.55401 8.68113 7.51005 8.72508C7.4661 8.76903 7.44141 8.82865 7.44141 8.89081C7.44141 8.95297 7.4661 9.01258 7.51005 9.05654C7.55401 9.10049 7.61362 9.12518 7.67578 9.12518H11.4258C11.4879 9.12518 11.5476 9.10049 11.5915 9.05654C11.6355 9.01258 11.6602 8.95297 11.6602 8.89081C11.6602 8.82865 11.6355 8.76903 11.5915 8.72508C11.5476 8.68113 11.4879 8.65643 11.4258 8.65643Z" fill="#6F6B7D"/>
<path d="M4.56817 9.07714L3.71398 10.3805L3.07736 9.91015C3.0273 9.87462 2.96529 9.86014 2.90467 9.86983C2.84405 9.87953 2.78965 9.91262 2.75316 9.96199C2.71668 10.0114 2.70102 10.0731 2.70955 10.1339C2.71808 10.1947 2.75013 10.2497 2.7988 10.2871L3.6349 10.9048C3.66055 10.9237 3.68979 10.9372 3.72083 10.9445C3.75188 10.9518 3.78409 10.9526 3.81547 10.947C3.84686 10.9414 3.87677 10.9294 3.90338 10.9118C3.92999 10.8943 3.95273 10.8715 3.97021 10.8448L4.96023 9.33419C4.99285 9.2822 5.0038 9.21949 4.9907 9.15953C4.97761 9.09957 4.94152 9.04713 4.8902 9.01348C4.83887 8.97983 4.77639 8.96765 4.71618 8.97955C4.65597 8.99145 4.60283 9.02649 4.56817 9.07714Z" fill="#6F6B7D"/>
</svg>
