<svg width="102" height="38" viewBox="0 0 102 38" fill="none" xmlns="http://www.w3.org/2000/svg">
<path d="M93.6291 27.2978V11.4039C93.6291 7.36588 93.0978 3.79847 92.0352 0.70166H101.918C100.855 3.79847 100.324 7.36588 100.324 11.4039V27.2978C100.324 31.3358 100.855 34.9032 101.918 38H92.0352C93.0978 34.9032 93.6291 31.3358 93.6291 27.2978Z" fill="white"/>
<path d="M85.1649 9.58223V27.2978C85.1649 31.3662 85.6962 34.9336 86.7588 38H76.8763C77.939 34.9336 78.4703 31.3662 78.4703 27.2978V12.3603L66.6295 27.0246L54.5611 12.1325V27.2978C54.5611 31.3358 55.0924 34.9032 56.155 38H46.3181C47.3504 35.0247 47.8665 31.4573 47.8665 27.2978V4.98255C46.8039 3.58595 45.5287 2.20453 44.041 0.838285V0.70166H54.1057C54.7736 2.40187 55.8969 4.19317 57.4757 6.07554L66.6751 17.4153L76.9674 4.66376C78.1819 3.14571 79.0471 1.82501 79.5633 0.70166H87.9884V0.838285C86.8347 2.26525 86.0757 3.57077 85.7114 4.75484C85.347 5.93892 85.1649 7.54805 85.1649 9.58223Z" fill="white"/>
<path d="M32.6994 27.2978V11.4039C32.6994 7.36588 32.1681 3.79847 31.1055 0.70166H40.9879C39.9253 3.79847 39.394 7.36588 39.394 11.4039V27.2978C39.394 31.3358 39.9253 34.9032 40.9879 38H31.1055C32.1681 34.9032 32.6994 31.3358 32.6994 27.2978Z" fill="white"/>
<path d="M29.104 37.8179V38H23.2747C21.9388 37.4839 20.2234 35.9962 18.1285 33.537C15.4567 30.258 12.3903 26.0378 8.92915 20.8765V27.2978C8.92915 31.3358 9.46047 34.9032 10.5231 38H0.640625C1.70326 34.9032 2.23457 31.3358 2.23457 27.2978V11.4039C2.23457 7.36588 1.70326 3.79847 0.640625 0.70166H9.79444C14.4093 0.70166 18.0222 1.73393 20.6333 3.79847C23.2443 5.83265 24.5498 8.41333 24.5498 11.5405C24.5498 15.8518 22.288 19.1763 17.7642 21.5141C19.3429 24.3073 20.9217 26.8272 22.5005 29.0739C23.8667 30.9867 26.0679 33.9013 29.104 37.8179ZM17.6731 12.3147C17.6731 10.068 16.8382 8.24635 15.1683 6.84975C13.4985 5.45315 11.4187 4.75484 8.92915 4.75484V20.1934C11.7527 19.5558 13.9083 18.5387 15.396 17.1421C16.9141 15.7455 17.6731 14.1364 17.6731 12.3147Z" fill="white"/>
</svg>
