<svg width="39" height="39" viewBox="0 0 39 39" fill="none" xmlns="http://www.w3.org/2000/svg">
<path d="M16.25 4.875C15.7896 4.875 15.4039 4.719 15.093 4.407C14.7821 4.095 14.6261 3.70933 14.625 3.25C14.6239 2.79067 14.7799 2.405 15.093 2.093C15.4061 1.781 15.7917 1.625 16.25 1.625H22.75C23.2104 1.625 23.5966 1.781 23.9086 2.093C24.2206 2.405 24.3761 2.79067 24.375 3.25C24.3739 3.70933 24.2179 4.09554 23.907 4.40862C23.5961 4.72171 23.2104 4.87717 22.75 4.875H16.25ZM19.5 22.75C19.9604 22.75 20.3466 22.594 20.6586 22.282C20.9706 21.97 21.1261 21.5843 21.125 21.125V14.625C21.125 14.1646 20.969 13.7789 20.657 13.468C20.345 13.1571 19.9593 13.0011 19.5 13C19.0407 12.9989 18.655 13.1549 18.343 13.468C18.031 13.7811 17.875 14.1667 17.875 14.625V21.125C17.875 21.5854 18.031 21.9716 18.343 22.2836C18.655 22.5956 19.0407 22.7511 19.5 22.75ZM19.5 35.75C17.4958 35.75 15.6065 35.3643 13.832 34.593C12.0575 33.8217 10.5073 32.7719 9.18125 31.4437C7.85525 30.1156 6.80604 28.5648 6.03363 26.7914C5.26121 25.018 4.875 23.1292 4.875 21.125C4.875 19.1208 5.26121 17.2315 6.03363 15.457C6.80604 13.6825 7.85525 12.1322 9.18125 10.8062C10.5073 9.48025 12.058 8.43104 13.8336 7.65862C15.6092 6.88621 17.498 6.5 19.5 6.5C21.1792 6.5 22.7906 6.77083 24.3344 7.3125C25.8781 7.85417 27.3271 8.63958 28.6812 9.66875L29.8188 8.53125C30.1167 8.23333 30.4958 8.08437 30.9562 8.08437C31.4167 8.08437 31.7958 8.23333 32.0938 8.53125C32.3917 8.82917 32.5406 9.20833 32.5406 9.66875C32.5406 10.1292 32.3917 10.5083 32.0938 10.8062L30.9562 11.9437C31.9854 13.2979 32.7708 14.7469 33.3125 16.2906C33.8542 17.8344 34.125 19.4458 34.125 21.125C34.125 23.1292 33.7388 25.0185 32.9664 26.793C32.194 28.5675 31.1448 30.1177 29.8188 31.4437C28.4928 32.7697 26.942 33.8195 25.1664 34.593C23.3908 35.3665 21.502 35.7522 19.5 35.75ZM19.5 32.5C22.6417 32.5 25.3229 31.3896 27.5438 29.1687C29.7646 26.9479 30.875 24.2667 30.875 21.125C30.875 17.9833 29.7646 15.3021 27.5438 13.0812C25.3229 10.8604 22.6417 9.75 19.5 9.75C16.3583 9.75 13.6771 10.8604 11.4563 13.0812C9.23542 15.3021 8.125 17.9833 8.125 21.125C8.125 24.2667 9.23542 26.9479 11.4563 29.1687C13.6771 31.3896 16.3583 32.5 19.5 32.5Z" fill="#6F6B7D"/>
</svg>
