<svg width="24" height="20" viewBox="0 0 24 20" fill="none" xmlns="http://www.w3.org/2000/svg">
<path d="M22.6386 0.41802V1.41036H18.5605V0.417114H5.30566V1.41036H1.22754V0.417114H0.321289V19.6749H1.22754V18.6835H5.30566V19.6758H18.5596V18.6835H22.6377V19.6758H23.7705V0.41802H22.6386ZM5.30566 17.4963H1.22754V14.6634H5.30566V17.4963ZM5.30566 13.4726H1.22754V10.6414H5.30566V13.4726ZM5.30566 9.45243H1.22754V6.6213H5.30566V9.45243ZM5.30566 5.43049H1.22754V2.59755H5.30566V5.43049ZM8.19207 14.6597V4.83961L16.6945 9.74968L8.19207 14.6597ZM22.6377 17.4963H18.5596V14.6634H22.6377V17.4963ZM22.6377 13.4726H18.5596V10.6414H22.6377V13.4726ZM22.6377 9.45243H18.5596V6.6213H22.6377V9.45243ZM22.6377 5.43049H18.5596V2.59755H22.6377V5.43049Z" fill="#59BDE2"/>
</svg>
